<?xml version="1.0" standalone="no"?>
<!DOCTYPE svg PUBLIC "-//W3C//DTD SVG 20010904//EN"
 "http://www.w3.org/TR/2001/REC-SVG-20010904/DTD/svg10.dtd">
<svg version="1.0" xmlns="http://www.w3.org/2000/svg"
 width="690.000000pt" height="690.000000pt" viewBox="0 0 690.000000 690.000000"
 preserveAspectRatio="xMidYMid meet">
<metadata>
Created by potrace 1.11, written by Peter Selinger 2001-2013
</metadata>
<g transform="translate(0.000000,690.000000) scale(0.100000,-0.100000)"
fill="#000000" stroke="none">
<path d="M4199 6896 c-2 -2 -26 -7 -54 -10 -162 -21 -347 -114 -501 -251 -7
-5 -29 -24 -50 -42 -22 -18 -52 -43 -67 -57 -16 -13 -47 -40 -69 -58 -39 -31
-276 -233 -398 -338 -30 -26 -71 -61 -90 -76 -19 -16 -42 -36 -50 -44 -9 -8
-36 -31 -59 -50 -24 -19 -58 -48 -76 -65 -17 -16 -58 -52 -91 -79 -32 -26 -80
-67 -105 -90 -25 -22 -64 -57 -88 -76 -23 -19 -53 -44 -65 -55 -36 -32 -86
-75 -166 -145 -41 -36 -80 -69 -86 -75 -6 -5 -35 -30 -64 -55 -28 -25 -62 -54
-74 -65 -23 -21 -123 -108 -166 -145 -87 -75 -151 -131 -195 -171 -27 -25 -65
-59 -84 -75 -19 -16 -44 -38 -55 -49 -12 -11 -39 -35 -61 -54 -42 -36 -169
-148 -216 -191 -15 -14 -58 -52 -95 -85 -105 -91 -216 -205 -250 -255 -198
-289 -216 -626 -54 -955 44 -88 79 -138 240 -340 36 -45 76 -96 90 -114 60
-80 168 -193 337 -353 258 -245 342 -494 279 -824 -10 -51 -51 -177 -86 -264
-44 -109 -76 -202 -84 -245 -3 -16 -7 -41 -10 -55 -17 -86 -22 -220 -12 -290
16 -106 35 -170 77 -257 18 -38 37 -71 43 -75 6 -5 7 -8 1 -8 -6 0 -6 -3 0 -8
6 -4 27 -29 47 -57 52 -72 157 -166 251 -228 184 -120 338 -167 532 -162 61 2
124 6 140 9 17 4 37 8 45 10 35 7 76 19 85 25 6 3 15 6 21 7 5 1 36 13 67 28
32 14 60 26 62 26 3 0 42 22 86 50 95 59 203 140 273 205 6 6 40 35 75 64 35
29 70 58 76 64 7 7 34 30 60 52 27 22 58 48 69 57 12 10 32 27 46 39 14 11 50
42 80 69 51 44 178 151 208 175 7 5 18 15 25 21 49 42 117 102 133 115 10 8
40 33 65 55 25 21 70 59 99 84 30 25 74 63 100 85 25 22 70 60 99 85 29 25 67
57 85 73 17 15 44 37 59 50 16 12 41 33 56 47 29 26 147 126 237 201 11 8 57
48 104 88 101 87 158 135 265 225 44 37 91 77 105 89 14 12 79 66 145 122 174
145 183 153 265 235 178 178 293 381 327 580 10 56 10 253 0 300 -4 19 -14 60
-22 90 -9 30 -17 60 -19 65 -3 11 -21 54 -45 105 -14 30 -65 121 -104 185 -7
11 -18 24 -24 28 -7 4 -13 14 -13 22 0 7 -3 15 -7 17 -5 2 -28 28 -53 58 -25
30 -47 57 -50 60 -8 8 -63 73 -100 120 -19 23 -46 55 -60 70 -14 15 -41 46
-60 70 -19 24 -55 67 -79 95 -24 27 -55 64 -70 80 -33 38 -171 194 -191 215
-172 186 -208 246 -212 348 -2 51 17 141 38 184 8 15 28 67 45 115 17 48 34
97 39 108 4 11 25 79 45 150 21 72 40 134 43 139 3 6 7 19 8 30 1 12 5 57 9
101 38 391 -68 670 -340 895 -35 30 -152 100 -166 100 -5 0 -9 5 -9 10 0 6 -7
10 -15 10 -8 0 -23 4 -33 9 -88 46 -214 72 -368 77 -66 2 -122 2 -125 0z m151
-693 c67 3 178 -137 196 -248 19 -123 18 -107 10 -180 -7 -60 -13 -92 -20
-103 -3 -5 -7 -19 -10 -33 -10 -47 -15 -65 -39 -134 -22 -64 -85 -221 -107
-270 -17 -37 -42 -100 -45 -115 -2 -8 -11 -46 -20 -85 -33 -139 -19 -278 40
-402 43 -92 82 -143 203 -268 53 -55 135 -143 181 -195 46 -52 91 -102 100
-111 9 -9 27 -31 41 -49 14 -18 32 -40 41 -49 14 -15 96 -113 126 -151 30 -38
184 -227 197 -240 38 -42 128 -167 154 -213 38 -66 53 -115 54 -169 2 -121
-58 -210 -262 -388 -47 -41 -90 -79 -96 -84 -23 -22 -81 -73 -144 -125 -36
-30 -69 -60 -75 -66 -5 -6 -57 -51 -115 -100 -58 -50 -107 -92 -110 -95 -3 -3
-36 -32 -75 -65 -38 -32 -77 -66 -86 -75 -9 -8 -42 -37 -74 -65 -33 -27 -80
-68 -105 -90 -25 -22 -72 -62 -105 -90 -55 -48 -85 -73 -130 -113 -11 -10 -99
-85 -195 -167 -96 -82 -184 -159 -195 -170 -42 -43 -172 -138 -220 -162 -100
-48 -177 -46 -275 9 -104 58 -162 148 -162 252 0 84 6 112 58 261 25 72 47
135 48 140 2 6 9 24 15 40 7 17 14 37 16 45 6 23 85 252 95 275 5 11 21 58 36
105 14 47 30 90 34 95 5 6 8 12 7 15 0 3 9 35 21 72 15 47 19 73 13 85 -5 10
-35 72 -66 138 -32 66 -72 138 -89 160 -17 22 -35 46 -41 53 -5 7 -17 21 -25
30 -9 9 -36 42 -60 72 -25 30 -55 66 -66 80 -34 40 -158 184 -169 196 -5 7
-24 29 -42 50 -17 22 -39 49 -50 60 -10 12 -40 47 -68 79 -27 32 -61 70 -74
84 -13 14 -37 43 -55 65 -17 21 -38 46 -47 55 -39 40 -220 262 -257 315 -142
202 -106 331 155 550 20 17 45 39 55 49 10 9 22 17 28 17 6 0 10 4 10 8 0 4
33 35 73 69 39 33 83 71 97 83 55 47 78 67 140 120 36 30 70 60 76 65 6 6 35
30 64 55 30 25 93 78 140 119 92 79 102 88 200 171 36 30 67 57 70 60 3 3 32
27 65 54 33 27 65 54 70 60 6 6 51 45 100 86 50 41 92 77 95 80 5 5 22 19 130
110 30 25 61 52 70 60 8 8 47 40 85 70 39 30 72 57 75 60 14 15 90 61 125 76
50 22 114 32 140 23 11 -3 22 -6 25 -6z"/>
</g>
</svg>
